<svg width="18" height="9" viewBox="0 0 18 9" fill="none" xmlns="http://www.w3.org/2000/svg">
    <path d="M1.85843 8.77012L8.6904 2.04606C8.83947 1.89859 9.04069 1.81588 9.25037 1.81588C9.46006 1.81588 9.66128 1.89859 9.81035 2.04606L16.6423 8.76866C16.7923 8.91606 16.9942 8.99865 17.2045 8.99865C17.4148 8.99865 17.6166 8.91606 17.7666 8.76866C17.8405 8.69666 17.8992 8.6106 17.9393 8.51555C17.9794 8.42051 18 8.3184 18 8.21525C18 8.1121 17.9794 8.01 17.9393 7.91495C17.8992 7.81991 17.8405 7.73384 17.7666 7.66184L10.9361 0.939242C10.4862 0.497496 9.88089 0.25 9.25037 0.25C8.61985 0.25 8.01453 0.497496 7.56462 0.939242L0.734111 7.66184C0.660029 7.73387 0.601141 7.82002 0.560929 7.9152C0.520718 8.01038 0.5 8.11266 0.5 8.21598C0.5 8.31931 0.520718 8.42158 0.560929 8.51676C0.601141 8.61194 0.660029 8.69809 0.734111 8.77012C0.884102 8.91752 1.08598 9.00011 1.29627 9.00011C1.50656 9.00011 1.70844 8.91752 1.85843 8.77012Z" fill="white"/>
</svg>
