<svg width="70" height="70" viewBox="0 0 70 70" fill="none" xmlns="http://www.w3.org/2000/svg">
    <mask id="mask0_2006_3001" style="mask-type:luminance" maskUnits="userSpaceOnUse" x="4" y="4" width="62" height="62">
        <path d="M35 64.1666C38.8309 64.1716 42.6251 63.4194 46.1644 61.9533C49.7037 60.4872 52.9184 58.3361 55.6237 55.6237C58.3362 52.9184 60.4873 49.7037 61.9534 46.1644C63.4194 42.625 64.1716 38.8309 64.1667 34.9999C64.1715 31.169 63.4193 27.3749 61.9533 23.8356C60.4872 20.2963 58.3361 17.0816 55.6237 14.3762C52.9184 11.6637 49.7037 9.51265 46.1644 8.04657C42.6251 6.58049 38.8309 5.82831 35 5.83328C31.1691 5.82839 27.3749 6.5806 23.8356 8.04668C20.2963 9.51276 17.0816 11.6638 14.3762 14.3762C11.6639 17.0816 9.51281 20.2963 8.04673 23.8356C6.58066 27.3749 5.82845 31.169 5.83333 34.9999C5.82837 38.8309 6.58054 42.625 8.04662 46.1644C9.5127 49.7037 11.6638 52.9184 14.3762 55.6237C17.0816 58.3361 20.2963 60.4871 23.8356 61.9532C27.3749 63.4193 31.1691 64.1715 35 64.1666Z" fill="white" stroke="white" stroke-width="2.08333" stroke-linejoin="round"/>
        <path fill-rule="evenodd" clip-rule="evenodd" d="M35 53.9583C35.9669 53.9583 36.8943 53.5742 37.578 52.8905C38.2617 52.2067 38.6458 51.2794 38.6458 50.3125C38.6458 49.3455 38.2617 48.4182 37.578 47.7345C36.8943 47.0507 35.9669 46.6666 35 46.6666C34.0331 46.6666 33.1057 47.0507 32.422 47.7345C31.7383 48.4182 31.3542 49.3455 31.3542 50.3125C31.3542 51.2794 31.7383 52.2067 32.422 52.8905C33.1057 53.5742 34.0331 53.9583 35 53.9583Z" fill="black"/>
        <path d="M35 17.5V36.3462" stroke="black" stroke-width="7" stroke-linecap="round" stroke-linejoin="round"/>
    </mask>
    <g mask="url(#mask0_2006_3001)">
        <path d="M0 0H70V70H0V0Z" fill="#FF5959"/>
    </g>
</svg>
