<svg width="70" height="70" viewBox="0 0 70 70" fill="none" xmlns="http://www.w3.org/2000/svg">
    <path d="M34.9999 5.83337C18.9174 5.83337 5.83326 18.9175 5.83326 35C5.83326 51.0825 18.9174 64.1667 34.9999 64.1667C51.0824 64.1667 64.1666 51.0825 64.1666 35C64.1666 18.9175 51.0824 5.83337 34.9999 5.83337ZM47.4847 29.9848L32.9014 44.5682C32.4741 44.9955 31.9141 45.2084 31.3541 45.2084C30.7941 45.2084 30.2341 44.9955 29.8068 44.5682L22.5151 37.2765C21.6606 36.4219 21.6606 35.038 22.5151 34.1834C23.3697 33.3288 24.7537 33.3288 25.6083 34.1834L31.3526 39.9277L44.3887 26.8917C45.2433 26.0371 46.6272 26.0371 47.4818 26.8917C48.3364 27.7463 48.3378 29.1303 47.4847 29.9848Z" fill="#00A84D"/>
</svg>
